HIERARCHY
ROOT joint_Root
{
	OFFSET 0.0 0.0 0.0
	CHANNELS 6 Xposition Yposition Zposition Zrotation Xrotation Yrotation 
	JOINT Hips
	{
		OFFSET -17.1583 93.1646 452.98
		CHANNELS 6 Xposition Yposition Zposition Zrotation Xrotation Yrotation 
		JOINT Spine
		{
			OFFSET 15.7357 0.0 0.0
			CHANNELS 6 Xposition Yposition Zposition Zrotation Xrotation Yrotation 
			JOINT Chest
			{
				OFFSET 8.98455 -0.406207 0.0
				CHANNELS 6 Xposition Yposition Zposition Zrotation Xrotation Yrotation 
				JOINT Neck
				{
					OFFSET 16.3773 0.0 0.0
					CHANNELS 6 Xposition Yposition Zposition Zrotation Xrotation Yrotation 
					JOINT Head
					{
						OFFSET 6.45672 0.0 0.0
						CHANNELS 6 Xposition Yposition Zposition Zrotation Xrotation Yrotation 
						End Site
						{
							OFFSET 0.0 0.0 0.0
						}
					}
				}
				JOINT Shoulder_L
				{
					OFFSET 12.9942 -0.242716 4.98039
					CHANNELS 6 Xposition Yposition Zposition Zrotation Xrotation Yrotation 
					JOINT UpperArm_L
					{
						OFFSET 5.34809 0.0 0.0
						CHANNELS 6 Xposition Yposition Zposition Zrotation Xrotation Yrotation 
						JOINT LowerArm_L
						{
							OFFSET 24.3286 1.87007e-05 0.0
							CHANNELS 6 Xposition Yposition Zposition Zrotation Xrotation Yrotation 
							JOINT Hand_L
							{
								OFFSET 22.2916 0.0 0.0
								CHANNELS 6 Xposition Yposition Zposition Zrotation Xrotation Yrotation 
								End Site
								{
									OFFSET 0.0 0.0 0.0
								}
							}
						}
					}
				}
				JOINT Shoulder_R
				{
					OFFSET 12.9945 -0.242716 -4.98039
					CHANNELS 6 Xposition Yposition Zposition Zrotation Xrotation Yrotation 
					JOINT UpperArm_R
					{
						OFFSET -5.34813 0.0 0.0
						CHANNELS 6 Xposition Yposition Zposition Zrotation Xrotation Yrotation 
						JOINT LowerArm_R
						{
							OFFSET -24.3289 0.000322201 0.0
							CHANNELS 6 Xposition Yposition Zposition Zrotation Xrotation Yrotation 
							JOINT Hand_R
							{
								OFFSET -22.2915 -0.000108084 0.0
								CHANNELS 6 Xposition Yposition Zposition Zrotation Xrotation Yrotation 
								End Site
								{
									OFFSET 0.0 0.0 0.0
								}
							}
						}
					}
				}
			}
		}
		JOINT UpperLeg_L
		{
			OFFSET -2.19248 -6.46944 0.0
			CHANNELS 6 Xposition Yposition Zposition Zrotation Xrotation Yrotation 
			JOINT LowerLeg_L
			{
				OFFSET 39.0811 0.0 -1.23785e-05
				CHANNELS 6 Xposition Yposition Zposition Zrotation Xrotation Yrotation 
				JOINT Foot_L
				{
					OFFSET 40.9854 0.0 -1.26872e-05
					CHANNELS 6 Xposition Yposition Zposition Zrotation Xrotation Yrotation 
					JOINT Toes_L
					{
						OFFSET 11.7543 0.0 0.0
						CHANNELS 6 Xposition Yposition Zposition Zrotation Xrotation Yrotation 
						End Site
						{
							OFFSET 0.0 0.0 0.0
						}
					}
				}
			}
		}
		JOINT UpperLeg_R
		{
			OFFSET -2.19251 6.46944 0.0
			CHANNELS 6 Xposition Yposition Zposition Zrotation Xrotation Yrotation 
			JOINT LowerLeg_R
			{
				OFFSET -39.0811 -0.00228153 -0.0401928
				CHANNELS 6 Xposition Yposition Zposition Zrotation Xrotation Yrotation 
				JOINT Foot_R
				{
					OFFSET -40.9854 0.0 0.0
					CHANNELS 6 Xposition Yposition Zposition Zrotation Xrotation Yrotation 
					JOINT Toes_R
					{
						OFFSET -11.7543 0.0 0.0
						CHANNELS 6 Xposition Yposition Zposition Zrotation Xrotation Yrotation 
						End Site
						{
							OFFSET 0.0 0.0 0.0
						}
					}
				}
			}
		}
	}
}
MOTION
Frames:	5
Frame Time:	0.0333333
0.000000 0.000000 0.000000 0.000000 0.000000 -0.000000 -216.194000 92.785200 261.355000 67.149800 85.213500 21.363600 15.735700 0.000005 -0.000001 48.329000 85.802600 -46.630200 8.984550 -0.406207 -0.000000 -1.409720 -5.716100 3.328380 16.377300 -0.000001 -0.000001 -2.048890 7.918080 -3.613530 6.456720 -0.000001 -0.000000 5.662580 13.230500 -1.256510 12.994200 -0.242716 4.980390 -91.407500 4.720160 -73.375900 5.348090 -0.000007 -0.000001 -64.193900 10.046100 -21.048200 24.328600 0.000019 0.000005 17.942600 20.911500 -42.215200 22.291600 -0.000001 0.000005 2.655200 5.005720 7.192390 12.994500 -0.242716 -4.980390 89.950200 0.148606 -71.479300 -5.348130 -0.000001 -0.000004 -58.437000 -8.449070 20.546900 -24.328900 0.000322 -0.000009 0.891184 7.520860 -6.785720 -22.291500 -0.000108 -0.000004 5.621060 5.171040 3.435180 -2.192480 -6.469440 -0.000000 -177.206000 -6.940820 7.422060 39.081100 -0.000007 -0.000012 -0.001129 0.006332 10.108700 40.985400 -0.000006 -0.000013 -1.954510 25.540800 -61.668200 11.754300 -0.000000 0.000003 2.853100 3.532320 -17.888700 -2.192510 6.469440 -0.000001 -178.140000 1.187450 153.119000 -39.081100 -0.002282 -0.040193 0.042856 -0.058919 33.880300 -40.985400 0.000008 0.000006 -5.700630 -9.382370 -60.745500 -11.754300 -0.000006 -0.000006 0.001347 0.140639 -10.869900
0.000000 0.000000 0.000000 0.000000 0.000000 -0.000000 -213.238000 92.304100 261.769000 62.029200 86.464000 26.426800 15.735700 0.000005 -0.000001 47.001900 85.425300 -45.427300 8.984550 -0.406207 -0.000000 -0.985096 -6.358580 3.095770 16.377300 -0.000001 -0.000001 -2.755650 7.548210 -3.181400 6.456720 -0.000001 -0.000000 5.298930 13.096500 -1.029670 12.994200 -0.242716 4.980390 -91.166900 4.115640 -74.156200 5.348090 -0.000007 -0.000001 -62.955300 8.104830 -25.161700 24.328600 0.000019 0.000005 19.771300 19.563400 -47.030100 22.291600 -0.000001 0.000005 4.529900 4.983660 7.664990 12.994500 -0.242716 -4.980390 90.214400 -0.646845 -71.660200 -5.348130 -0.000001 -0.000004 -57.285900 -10.618600 22.639900 -24.328900 0.000322 -0.000009 0.896015 7.419820 -6.913480 -22.291500 -0.000108 -0.000004 5.944610 5.171600 3.421130 -2.192480 -6.469440 -0.000000 -176.401000 -7.758550 10.057500 39.081100 -0.000007 -0.000012 -0.001365 0.009034 8.587230 40.985400 -0.000006 -0.000013 -2.356330 28.049400 -61.265500 11.754300 -0.000000 0.000003 3.552570 4.193140 -19.460600 -2.192510 6.469440 -0.000001 -177.801000 2.667740 154.663000 -39.081100 -0.002282 -0.040193 0.030837 -0.073895 20.424000 -40.985400 0.000008 0.000006 -5.940790 -6.221080 -59.691300 -11.754300 -0.000006 -0.000006 0.001311 0.141508 -10.834600
0.000000 0.000000 0.000000 0.000000 0.000000 -0.000000 -209.948000 91.361000 262.214000 56.821400 87.701100 31.893900 15.735700 0.000005 -0.000001 46.742100 85.029600 -45.384600 8.984550 -0.406207 -0.000000 -0.440502 -6.907970 2.689540 16.377300 -0.000001 -0.000001 -3.268330 7.192030 -2.769440 6.456720 -0.000001 -0.000000 4.980170 12.781500 -0.682576 12.994200 -0.242716 4.980390 -91.106900 4.141210 -75.020100 5.348090 -0.000007 -0.000001 -62.259900 5.075370 -28.322400 24.328600 0.000019 0.000005 21.254500 17.802200 -51.832300 22.291600 -0.000001 0.000005 4.941650 4.968630 7.979460 12.994500 -0.242716 -4.980390 90.279300 -0.861720 -72.038800 -5.348130 -0.000001 -0.000004 -56.218700 -12.029300 23.781300 -24.328900 0.000322 -0.000009 0.852898 8.242580 -5.937300 -22.291500 -0.000108 -0.000004 7.593370 5.159150 3.719230 -2.192480 -6.469440 -0.000000 -176.022000 -7.209680 12.100400 39.081100 -0.000007 -0.000012 -0.004704 0.028213 9.464270 40.985400 -0.000006 -0.000013 -1.924100 29.076300 -62.884100 11.754300 -0.000000 0.000003 4.518070 5.076000 -21.278400 -2.192510 6.469440 -0.000001 -178.110000 2.710290 156.083000 -39.081100 -0.002282 -0.040193 0.022186 -0.102085 10.460600 -40.985400 0.000008 0.000006 -7.098870 -3.362150 -60.112900 -11.754300 -0.000006 -0.000006 0.001435 0.138393 -10.961000
0.000000 0.000000 0.000000 0.000000 0.000000 -0.000000 -206.323000 90.307900 262.779000 40.352100 88.508900 48.421700 15.735700 0.000005 -0.000001 46.095500 84.811400 -44.842000 8.984550 -0.406207 -0.000000 -0.204257 -7.281630 2.495160 16.377300 -0.000001 -0.000001 -3.615630 6.786560 -2.588720 6.456720 -0.000001 -0.000000 4.945110 12.488900 -0.228496 12.994200 -0.242716 4.980390 -91.300200 5.071990 -75.601400 5.348090 -0.000007 -0.000001 -63.522500 1.093680 -29.850900 24.328600 0.000019 0.000005 22.824000 15.844500 -57.027900 22.291600 -0.000001 0.000005 5.906560 4.964240 8.069980 12.994500 -0.242716 -4.980390 90.000600 -0.001915 -72.295400 -5.348130 -0.000001 -0.000004 -54.681200 -12.803200 23.755100 -24.328900 0.000322 -0.000009 0.669094 9.751560 -3.952900 -22.291500 -0.000108 -0.000004 10.456000 5.125100 4.518430 -2.192480 -6.469440 -0.000000 -175.363000 -6.631610 13.278700 39.081100 -0.000007 -0.000012 -0.009423 0.044372 11.988400 40.985400 -0.000006 -0.000013 -1.131840 29.678600 -64.863800 11.754300 -0.000000 0.000003 4.784770 4.970910 -23.240500 -2.192510 6.469440 -0.000001 -178.475000 1.298800 155.321000 -39.081100 -0.002282 -0.040193 0.013893 -0.078391 7.665330 -40.985400 0.000008 0.000006 -6.339450 -2.005810 -61.684400 -11.754300 -0.000006 -0.000006 0.001284 0.142170 -10.807800
0.000000 0.000000 0.000000 0.000000 0.000000 -0.000000 -202.145000 89.258100 263.453000 23.543400 88.342400 64.824800 15.735700 0.000005 -0.000001 44.854200 84.955000 -43.490300 8.984550 -0.406207 -0.000000 -0.559459 -7.250440 2.693730 16.377300 -0.000001 -0.000001 -3.691360 6.684980 -2.631210 6.456720 -0.000001 -0.000000 5.156490 12.033400 0.001629 12.994200 -0.242716 4.980390 -91.474300 5.737130 -75.562500 5.348090 -0.000007 -0.000001 -66.774100 -1.813210 -28.739900 24.328600 0.000019 0.000005 22.936500 12.820900 -62.331700 22.291600 -0.000001 0.000005 9.625440 4.989070 7.565330 12.994500 -0.242716 -4.980390 89.625400 1.167640 -72.213100 -5.348130 -0.000001 -0.000004 -53.629300 -12.968300 22.503100 -24.328900 0.000322 -0.000009 0.297542 11.215400 -1.535870 -22.291500 -0.000108 -0.000004 14.291400 5.055140 6.099140 -2.192480 -6.469440 -0.000000 -174.055000 -6.841980 14.096900 39.081100 -0.000007 -0.000012 -0.013368 0.050570 14.806500 40.985400 -0.000006 -0.000013 -0.343120 30.559200 -65.584700 11.754300 -0.000000 0.000003 4.379490 3.927080 -26.262900 -2.192510 6.469440 -0.000001 -177.783000 0.248583 152.804000 -39.081100 -0.002282 -0.040193 0.013732 -0.052282 11.245600 -40.985400 0.000008 0.000006 -7.159910 -2.346100 -63.219900 -11.754300 -0.000006 -0.000006 0.001260 0.142752 -10.784200
